<svg width="341" height="463" viewBox="0 0 341 463" fill="none" xmlns="http://www.w3.org/2000/svg">
<rect x="166.585" y="66.7413" width="16.0279" height="202.31" fill="#D9D9D9"/>
<rect width="16.2969" height="109.827" transform="matrix(-0.759134 0.650934 0.620493 0.784212 182.964 261.751)" fill="#D9D9D9"/>
<rect width="16.2969" height="109.827" transform="matrix(0.759134 0.650934 -0.620493 0.784212 166.614 261.751)" fill="#D9D9D9"/>
<rect x="68.4141" y="13.5568" width="213.372" height="12.514" rx="5" fill="#D9D9D9"/>
<ellipse cx="93.4578" cy="39.6277" rx="25.0436" ry="13.5568" fill="#D9D9D9"/>
<ellipse cx="93.4578" cy="40.1491" rx="21.0367" ry="10.9497" fill="url(#paint0_diamond_89_601)"/>
<ellipse cx="256.742" cy="39.6277" rx="25.0436" ry="13.5568" fill="#D9D9D9"/>
<ellipse cx="256.742" cy="40.1491" rx="21.0367" ry="10.9497" fill="url(#paint1_diamond_89_601)"/>
<ellipse cx="148.053" cy="49.5346" rx="22.5393" ry="23.4637" fill="#D9D9D9"/>
<ellipse cx="147.552" cy="50.056" rx="15.0262" ry="15.6425" fill="url(#paint2_diamond_89_601)"/>
<ellipse cx="201.145" cy="49.5346" rx="22.5393" ry="23.4637" fill="#D9D9D9"/>
<ellipse cx="200.645" cy="50.056" rx="15.0262" ry="15.6425" fill="url(#paint3_diamond_89_601)"/>
<ellipse cx="175.1" cy="7.82125" rx="22.5393" ry="7.82125" fill="#D9D9D9"/>
<rect x="169.59" y="26.0708" width="9.01571" height="41.7133" fill="#D9D9D9"/>
<rect x="164.5" y="155" width="21" height="156" fill="black"/>
<ellipse cx="174.5" cy="119.5" rx="40" ry="41.5" fill="black"/>
<rect x="133.115" y="316.971" width="74" height="14" transform="rotate(-106.175 133.115 316.971)" fill="black"/>
<rect x="174.726" y="205.134" width="74" height="14" transform="rotate(136.376 174.726 205.134)" fill="black"/>
<rect x="227.405" y="123" width="52.9003" height="11.9434" transform="rotate(65.9296 227.405 123)" fill="black"/>
<rect x="171.5" y="195.142" width="74" height="14" transform="rotate(-27.4763 171.5 195.142)" fill="black"/>
<path d="M223.812 101C223.812 89.5957 218.733 78.6585 209.691 70.5944C200.65 62.5303 188.387 58 175.601 58C162.814 58 150.552 62.5303 141.51 70.5944C132.469 78.6585 127.389 89.5957 127.389 101L139.303 101C139.303 92.4138 143.127 84.1793 149.934 78.108C156.742 72.0367 165.974 68.6258 175.601 68.6258C185.227 68.6258 194.46 72.0367 201.267 78.108C208.074 84.1793 211.898 92.4138 211.898 101H223.812Z" fill="black"/>
<path d="M138.533 103.183C135.771 103.187 133.037 103.663 130.487 104.583C127.937 105.504 125.621 106.85 123.671 108.547C121.722 110.243 120.177 112.256 119.124 114.47C118.072 116.684 117.533 119.056 117.537 121.451C117.542 123.846 118.091 126.216 119.153 128.427C120.214 130.638 121.768 132.646 123.724 134.336C125.681 136.027 128.002 137.366 130.556 138.279C133.109 139.191 135.845 139.659 138.607 139.654L138.57 121.418L138.533 103.183Z" fill="black"/>
<path d="M211.467 139.622C214.229 139.622 216.964 139.15 219.516 138.234C222.068 137.317 224.387 135.974 226.34 134.281C228.293 132.587 229.842 130.577 230.899 128.364C231.956 126.152 232.5 123.781 232.5 121.386C232.5 118.991 231.956 116.62 230.899 114.407C229.842 112.195 228.293 110.185 226.34 108.491C224.387 106.798 222.068 105.455 219.516 104.538C216.964 103.622 214.229 103.15 211.467 103.15L211.467 121.386V139.622Z" fill="black"/>
<rect x="79.5" y="228" width="181" height="235" fill="#D9D9D9"/>
<path d="M79.5 228H260.5V463H79.5V228Z" fill="url(#paint4_linear_89_601)"/>
<path d="M0 187L72.3013 226.5V463L0 417.5V187Z" fill="url(#paint5_linear_89_601)"/>
<path d="M340.301 187L268 226.5V463L340.301 417.5V187Z" fill="url(#paint6_linear_89_601)"/>
<defs>
<radialGradient id="paint0_diamond_89_601" cx="0" cy="0" r="1" gradientUnits="userSpaceOnUse" gradientTransform="translate(93.4578 40.1491) rotate(90) scale(13.0354 25.0436)">
<stop stop-color="#FF0000"/>
<stop offset="1" stop-color="#FF0000" stop-opacity="0"/>
</radialGradient>
<radialGradient id="paint1_diamond_89_601" cx="0" cy="0" r="1" gradientUnits="userSpaceOnUse" gradientTransform="translate(256.742 40.1491) rotate(90) scale(13.0354 25.0436)">
<stop stop-color="#4200FF"/>
<stop offset="1" stop-color="#0500FF" stop-opacity="0"/>
</radialGradient>
<radialGradient id="paint2_diamond_89_601" cx="0" cy="0" r="1" gradientUnits="userSpaceOnUse" gradientTransform="translate(147.552 50.056) rotate(90) scale(21.3781 20.5358)">
<stop stop-color="#28FF05"/>
<stop offset="1" stop-color="#28FF05" stop-opacity="0"/>
</radialGradient>
<radialGradient id="paint3_diamond_89_601" cx="0" cy="0" r="1" gradientUnits="userSpaceOnUse" gradientTransform="translate(200.645 50.056) rotate(90) scale(21.3781 20.5358)">
<stop stop-color="#FF05D7"/>
<stop offset="1" stop-color="#FF05E6" stop-opacity="0"/>
</radialGradient>
<linearGradient id="paint4_linear_89_601" x1="173" y1="260.5" x2="174.5" y2="534" gradientUnits="userSpaceOnUse">
<stop stop-color="#D9D9D9"/>
<stop offset="1" stop-color="#EB00FF" stop-opacity="0"/>
</linearGradient>
<linearGradient id="paint5_linear_89_601" x1="36.5" y1="263" x2="36.5" y2="498.5" gradientUnits="userSpaceOnUse">
<stop stop-color="#A8A8A8"/>
<stop offset="1" stop-color="#EB00FF" stop-opacity="0"/>
</linearGradient>
<linearGradient id="paint6_linear_89_601" x1="303.801" y1="263" x2="303.801" y2="498.5" gradientUnits="userSpaceOnUse">
<stop stop-color="#A8A8A8"/>
<stop offset="1" stop-color="#EB00FF" stop-opacity="0"/>
</linearGradient>
</defs>
</svg>
