<svg width="341" height="405" viewBox="0 0 341 405" fill="none" xmlns="http://www.w3.org/2000/svg">
<rect x="164.5" y="97" width="21" height="156" fill="black"/>
<ellipse cx="174.5" cy="61.5" rx="40" ry="41.5" fill="black"/>
<rect x="133.115" y="258.971" width="74" height="14" transform="rotate(-106.175 133.115 258.971)" fill="black"/>
<rect x="174.726" y="147.134" width="74" height="14" transform="rotate(136.376 174.726 147.134)" fill="black"/>
<rect x="227.405" y="65" width="52.9003" height="11.9434" transform="rotate(65.9296 227.405 65)" fill="black"/>
<rect x="171.5" y="137.142" width="74" height="14" transform="rotate(-27.4763 171.5 137.142)" fill="black"/>
<path d="M223.812 43C223.812 31.5957 218.733 20.6585 209.691 12.5944C200.65 4.53035 188.387 8.61001e-07 175.601 0C162.814 -8.61001e-07 150.552 4.53034 141.51 12.5944C132.469 20.6585 127.39 31.5957 127.39 43L139.303 43C139.303 34.4138 143.127 26.1793 149.934 20.108C156.742 14.0367 165.974 10.6258 175.601 10.6258C185.228 10.6258 194.46 14.0367 201.267 20.108C208.074 26.1793 211.898 34.4138 211.898 43H223.812Z" fill="black"/>
<path d="M138.533 45.1826C135.77 45.1869 133.036 45.6628 130.487 46.5832C127.937 47.5036 125.621 48.8505 123.671 50.5469C121.722 52.2432 120.177 54.2559 119.124 56.47C118.072 58.6842 117.533 61.0563 117.537 63.4511C117.542 65.8458 118.091 68.2163 119.153 70.4271C120.214 72.638 121.768 74.6459 123.724 76.3362C125.681 78.0265 128.002 79.3662 130.556 80.2786C133.109 81.1911 135.845 81.6585 138.607 81.6543L138.57 63.4185L138.533 45.1826Z" fill="black"/>
<path d="M211.467 81.6217C214.229 81.6217 216.964 81.15 219.516 80.2335C222.068 79.3171 224.387 77.9739 226.34 76.2805C228.293 74.5871 229.842 72.5768 230.899 70.3644C231.956 68.1519 232.5 65.7806 232.5 63.3858C232.5 60.991 231.956 58.6197 230.899 56.4073C229.842 54.1948 228.293 52.1845 226.34 50.4911C224.387 48.7978 222.068 47.4545 219.516 46.5381C216.964 45.6216 214.229 45.15 211.467 45.15L211.467 63.3858V81.6217Z" fill="black"/>
<rect x="79.5" y="170" width="181" height="235" fill="#D9D9D9"/>
<path d="M79.5 170H260.5V405H79.5V170Z" fill="url(#paint0_linear_2_79)"/>
<path d="M0 129L72.3013 168.5V405L0 359.5V129Z" fill="url(#paint1_linear_2_79)"/>
<path d="M340.301 129L268 168.5V405L340.301 359.5V129Z" fill="url(#paint2_linear_2_79)"/>
<defs>
<linearGradient id="paint0_linear_2_79" x1="173" y1="202.5" x2="174.5" y2="476" gradientUnits="userSpaceOnUse">
<stop stop-color="#D9D9D9"/>
<stop offset="1" stop-color="#EB00FF" stop-opacity="0"/>
</linearGradient>
<linearGradient id="paint1_linear_2_79" x1="36.5" y1="205" x2="36.5" y2="440.5" gradientUnits="userSpaceOnUse">
<stop stop-color="#A8A8A8"/>
<stop offset="1" stop-color="#EB00FF" stop-opacity="0"/>
</linearGradient>
<linearGradient id="paint2_linear_2_79" x1="303.801" y1="205" x2="303.801" y2="440.5" gradientUnits="userSpaceOnUse">
<stop stop-color="#A8A8A8"/>
<stop offset="1" stop-color="#EB00FF" stop-opacity="0"/>
</linearGradient>
</defs>
</svg>
